# Blender 3.5.0
# www.blender.org
mtllib cube.mtl
o Cube
v -1.000000 -1.000000 1.000000
v -1.000000 1.000000 1.000000
v -1.000000 -1.000000 -1.000000
v -1.000000 1.000000 -1.000000
v 1.000000 -1.000000 1.000000
v 1.000000 1.000000 1.000000
v 1.000000 -1.000000 -1.000000
v 1.000000 1.000000 -1.000000
vn -1.0000 -0.0000 -0.0000
vn -0.0000 -0.0000 -1.0000
vn 1.0000 -0.0000 -0.0000
vn -0.0000 -0.0000 1.0000
vn -0.0000 -1.0000 -0.0000
vn -0.0000 1.0000 -0.0000
vt 0.010804 0.000000
vt 0.000961 0.995078
vt -0.002961 0.996078
vt 1.003961 0.004922
vt 0.999039 0.995078
vt 0.998039 0.998539
vt 0.000961 0.995617
vt 0.003422 0.006382
vt -0.000500 -0.002000
vt 0.996578 0.993156
vt 0.999039 0.001461
vt 1.000500 0.005383
vt 0.000961 0.993617
vt 0.000961 0.001922
vt 1.000039 0.998539
vt 0.999039 1.001000
vt 1.008882 -0.003000
vt -0.000039 0.993618
vt 0.003422 0.997078
vt -0.001500 0.000461
vt 0.995117 0.005383
vt 0.996578 0.997078
vt 1.003961 0.002922
vt 0.007343 0.002922
s 0
usemtl Material.001
f 1/1/1 2/4/1 4/10/1 3/7/1
f 3/8/2 4/11/2 8/22/2 7/19/2
f 7/20/3 8/23/3 6/16/3 5/13/3
f 5/14/4 6/17/4 2/5/4 1/2/4
f 3/9/5 7/21/5 5/15/5 1/3/5
f 8/24/6 4/12/6 2/6/6 6/18/6
